<svg width="122" height="32" viewBox="0 0 122 32" fill="none" xmlns="http://www.w3.org/2000/svg">
<g clip-path="url(#clip0_7257_411)">
<path d="M29.391 31.2C20.6057 32.2667 11.6606 32.2667 2.55574 31.2C1.65058 31.0933 0.905158 30.3467 0.798669 29.44C-0.266223 20.48 -0.266223 11.52 0.798669 2.56C0.905158 1.65333 1.65058 0.906667 2.55574 0.8C11.5008 -0.266667 20.4992 -0.266667 29.4443 0.8C30.3494 0.906667 31.0416 1.6 31.2013 2.50667C32.2662 11.3067 32.2662 20.2667 31.2013 29.44C31.0416 30.3467 30.2962 31.0933 29.391 31.2Z" fill="url(#paint0_linear_7257_411)"/>
<path fill-rule="evenodd" clip-rule="evenodd" d="M10.9591 8.13005C10.8636 8.03497 10.7955 7.91593 10.762 7.78545C10.7285 7.65497 10.7307 7.51786 10.7684 7.38854C10.8062 7.25921 10.8781 7.14245 10.9766 7.05051C11.075 6.95857 11.1965 6.89485 11.3281 6.86605L16.0951 5.82105C16.2179 5.79416 16.3456 5.7986 16.4663 5.83396C16.5869 5.86932 16.6968 5.93445 16.7857 6.02338C16.8747 6.11231 16.9398 6.22217 16.9752 6.34286C17.0105 6.46355 17.0149 6.5912 16.9881 6.71405L15.9421 11.4811C15.9132 11.6123 15.8495 11.7335 15.7578 11.8317C15.6661 11.93 15.5496 12.0018 15.4206 12.0396C15.2916 12.0774 15.1548 12.0799 15.0245 12.0467C14.8942 12.0135 14.7753 11.946 14.6801 11.851L10.9581 8.12905L10.9591 8.13005ZM17.6961 26.595C18.5182 26.595 19.3067 26.2684 19.8881 25.6871C20.4695 25.1057 20.7961 24.3172 20.7961 23.4951C20.7961 22.6729 20.4695 21.8844 19.8881 21.303C19.3067 20.7217 18.5182 20.395 17.6961 20.395C16.8739 20.395 16.0854 20.7217 15.504 21.303C14.9227 21.8844 14.5961 22.6729 14.5961 23.4951C14.5961 24.3172 14.9227 25.1057 15.504 25.6871C16.0854 26.2684 16.8739 26.595 17.6961 26.595ZM11.4061 11.403C11.2185 11.2156 10.9642 11.1103 10.6991 11.1103C10.4339 11.1103 10.1796 11.2156 9.99206 11.403L7.68906 13.705C7.29475 14.0993 6.98196 14.5674 6.76855 15.0826C6.55515 15.5978 6.44531 16.1499 6.44531 16.7076C6.44531 17.2652 6.55515 17.8173 6.76855 18.3325C6.98196 18.8477 7.29475 19.3158 7.68906 19.71L7.69306 19.713C8.49086 20.5088 9.57186 20.9555 10.6987 20.9549C11.8255 20.9543 12.9061 20.5066 13.7031 19.71L19.7081 13.705C20.5881 12.825 22.0131 12.825 22.8931 13.703C23.7711 14.579 23.7721 16.001 22.8961 16.879L22.8941 16.88L21.1241 18.65C20.9364 18.8376 20.831 19.0919 20.8309 19.3572C20.8308 19.6225 20.9361 19.8769 21.1236 20.0645C21.3111 20.2522 21.5654 20.3577 21.8307 20.3578C22.096 20.3578 22.3504 20.2526 22.5381 20.065L24.3081 18.295L24.3121 18.291C25.1072 17.4939 25.5531 16.4135 25.5518 15.2876C25.5505 14.1617 25.102 13.0824 24.3051 12.287C23.5073 11.4913 22.4263 11.0446 21.2994 11.0452C20.1726 11.0458 19.0921 11.4935 18.2951 12.29L12.2891 18.295C11.4101 19.175 9.98506 19.175 9.10406 18.295C8.68326 17.8739 8.44689 17.3029 8.44689 16.7076C8.44689 16.1122 8.68326 15.5412 9.10406 15.12L11.4061 12.817C11.5935 12.6295 11.6988 12.3752 11.6988 12.11C11.6988 11.8449 11.5935 11.5906 11.4061 11.403Z" fill="white"/>
</g>
<path d="M50.5309 26.7505C49.2388 26.7505 48.2158 26.4781 47.4621 25.9332C46.7083 25.4093 46.1592 24.6758 45.8146 23.7328C45.47 22.7898 45.2439 21.7105 45.1362 20.4951C45.0501 19.2796 45.007 18.0013 45.007 16.6601C45.007 15.277 45.0609 13.8415 45.1685 12.3536C43.7257 12.5422 42.3366 12.7832 41.0014 13.0766L40 8.14145C41.7875 7.68042 43.6933 7.34512 45.7177 7.13556C45.8684 6.0668 46.03 4.94565 46.2022 3.7721C46.3745 2.5776 46.5683 1.32024 46.7837 0L52.3399 0.471512C52.0814 1.56123 51.8553 2.65095 51.6615 3.74067C51.4677 4.80943 51.2954 5.84676 51.1446 6.85265C52.3506 6.85265 53.4813 6.88409 54.5365 6.94696C55.6133 6.98887 56.6039 7.07269 57.5084 7.19843L56.8623 12.1336C56.1086 12.0498 55.3225 11.9974 54.5042 11.9764C53.7074 11.9345 52.8998 11.9136 52.0814 11.9136C51.5861 11.9136 51.0908 11.924 50.5955 11.945C50.4663 13.4748 50.3801 14.7845 50.3371 15.8743C50.3155 16.964 50.3048 17.7394 50.3048 18.2004C50.3048 19.353 50.3694 20.1807 50.4986 20.6837C50.6493 21.1866 50.8862 21.4381 51.2093 21.4381C51.5754 21.4381 51.9845 21.3229 52.4368 21.0923C52.889 20.8409 53.3305 20.5056 53.7612 20.0864C54.2135 19.6673 54.5903 19.2168 54.8918 18.7348L57.3792 23.7957C55.2472 25.7656 52.9644 26.7505 50.5309 26.7505Z" fill="#111111"/>
<path d="M69.3933 26.8448C67.6704 26.8448 66.1629 26.5724 64.8708 26.0275C63.6002 25.4826 62.545 24.7387 61.7051 23.7957C60.8652 22.8317 60.2406 21.7315 59.8315 20.4951C59.4223 19.2587 59.2177 17.9594 59.2177 16.5972C59.2177 15.2141 59.4654 13.9358 59.9607 12.7623C60.4775 11.5678 61.1774 10.5305 62.0604 9.65029C62.9649 8.77014 64.0201 8.08906 65.2261 7.60707C66.4321 7.10413 67.7458 6.85265 69.1671 6.85265C70.6531 6.85265 72.0314 7.10413 73.302 7.60707C74.5726 8.11002 75.6816 8.81205 76.6292 9.71316C77.5768 10.6143 78.309 11.6726 78.8258 12.888C79.3642 14.1035 79.6334 15.4237 79.6334 16.8487C79.6334 20.0131 78.7397 22.4754 76.9522 24.2358C75.1648 25.9751 72.6451 26.8448 69.3933 26.8448ZM69.361 21.7525C70.9331 21.7525 72.1283 21.3229 72.9466 20.4637C73.7865 19.6045 74.2065 18.368 74.2065 16.7544C74.2065 15.3084 73.7542 14.1454 72.8497 13.2652C71.9452 12.3851 70.7608 11.945 69.2963 11.945C68.4134 11.945 67.6058 12.1755 66.8736 12.6365C66.1414 13.0766 65.5492 13.6739 65.0969 14.4283C64.6662 15.1618 64.4508 15.979 64.4508 16.8802C64.4508 17.6765 64.6124 18.4519 64.9354 19.2063C65.28 19.9607 65.8184 20.5789 66.5506 21.0609C67.2828 21.5219 68.2196 21.7525 69.361 21.7525Z" fill="#111111"/>
<path d="M89.6598 24.4244C88.3031 24.4244 87.1509 24.2253 86.2034 23.8271C85.2558 23.4289 84.4697 22.9155 83.8452 22.2868C83.2422 21.6372 82.7684 20.9456 82.4239 20.2122C82.0793 19.4578 81.8424 18.7348 81.7132 18.0432C81.584 17.3307 81.5194 16.7125 81.5194 16.1886C81.5194 15.1827 81.6594 14.1454 81.9393 13.0766C82.2408 12.0079 82.7361 11.0124 83.4253 10.0904C84.1359 9.1683 85.0943 8.42436 86.3003 7.85855C87.5278 7.29273 89.0676 7.00982 90.9196 7.00982C91.4796 7.00982 91.9964 7.05174 92.4702 7.13556C92.944 7.21938 93.3855 7.33464 93.7946 7.48134V6.44401H99.3831C99.3616 7.70138 99.34 9.12639 99.3185 10.7191C99.297 12.2908 99.2862 14.072 99.2862 16.0629C99.2862 17.0897 99.2862 18.169 99.2862 19.3006C99.3077 20.4113 99.3185 21.6267 99.3185 22.947C99.3185 24.7492 99.0709 26.2266 98.5755 27.3792C98.0802 28.5318 97.4449 29.4224 96.6696 30.0511C95.8944 30.6798 95.0868 31.1303 94.2469 31.4028C93.4285 31.6961 92.664 31.8638 91.9534 31.9057C91.2642 31.9686 90.7474 32 90.4028 32C89.5629 32 88.6369 31.9057 87.6247 31.7171C86.6125 31.5494 85.6004 31.2665 84.5882 30.8684C83.576 30.4912 82.65 29.9987 81.8101 29.391L84.1682 24.613C84.7066 25.053 85.245 25.4512 85.7834 25.8075C86.3218 26.1847 86.9463 26.4781 87.657 26.6876C88.3677 26.9181 89.2506 27.0334 90.3059 27.0334C91.3827 27.0334 92.1795 26.8448 92.6963 26.4676C93.2132 26.1113 93.547 25.6293 93.6977 25.0216C93.87 24.4348 93.9669 23.7852 93.9885 23.0727C93.2563 23.5966 92.5133 23.9528 91.7595 24.1415C91.0058 24.3301 90.3059 24.4244 89.6598 24.4244ZM86.3649 15.7485C86.3649 16.943 86.6987 17.8861 87.3663 18.5776C88.0554 19.2692 88.9922 19.6149 90.1767 19.6149C91.8349 19.6149 93.0732 18.6824 93.8916 16.8173C93.8916 16.1467 93.8808 15.4656 93.8592 14.7741C93.8592 14.0616 93.8485 13.37 93.8269 12.6994C92.9655 12.1546 91.9749 11.8821 90.855 11.8821C89.4768 11.8821 88.3784 12.2384 87.5601 12.9509C86.7633 13.6424 86.3649 14.575 86.3649 15.7485Z" fill="#111111"/>
<path d="M111.76 26.8448C110.037 26.8448 108.53 26.5724 107.237 26.0275C105.967 25.4826 104.912 24.7387 104.072 23.7957C103.232 22.8317 102.607 21.7315 102.198 20.4951C101.789 19.2587 101.584 17.9594 101.584 16.5972C101.584 15.2141 101.832 13.9358 102.327 12.7623C102.844 11.5678 103.544 10.5305 104.427 9.65029C105.331 8.77014 106.387 8.08906 107.593 7.60707C108.799 7.10413 110.112 6.85265 111.534 6.85265C113.02 6.85265 114.398 7.10413 115.669 7.60707C116.939 8.11002 118.048 8.81205 118.996 9.71316C119.943 10.6143 120.676 11.6726 121.192 12.888C121.731 14.1035 122 15.4237 122 16.8487C122 20.0131 121.106 22.4754 119.319 24.2358C117.531 25.9751 115.012 26.8448 111.76 26.8448ZM111.728 21.7525C113.3 21.7525 114.495 21.3229 115.313 20.4637C116.153 19.6045 116.573 18.368 116.573 16.7544C116.573 15.3084 116.121 14.1454 115.216 13.2652C114.312 12.3851 113.127 11.945 111.663 11.945C110.78 11.945 109.972 12.1755 109.24 12.6365C108.508 13.0766 107.916 13.6739 107.463 14.4283C107.033 15.1618 106.817 15.979 106.817 16.8802C106.817 17.6765 106.979 18.4519 107.302 19.2063C107.647 19.9607 108.185 20.5789 108.917 21.0609C109.649 21.5219 110.586 21.7525 111.728 21.7525Z" fill="#111111"/>
<defs>
<linearGradient id="paint0_linear_7257_411" x1="5.3202" y1="5.32165" x2="26.7903" y2="26.756" gradientUnits="userSpaceOnUse">
<stop stop-color="#FF3209"/>
<stop offset="1" stop-color="#FF5735"/>
</linearGradient>
<clipPath id="clip0_7257_411">
<rect width="32" height="32" fill="white"/>
</clipPath>
</defs>
</svg>
